<?xml version="1.0" encoding="UTF-8"?>
<svg id="Layer_1" data-name="Layer 1" xmlns="http://www.w3.org/2000/svg" xmlns:xlink="http://www.w3.org/1999/xlink" viewBox="0 0 613.97 570.6">
  <defs>
    <style>
      .cls-1 {
        fill: none;
      }

      .cls-2 {
        fill: #00c3d4;
      }

      .cls-3 {
        fill: #f15a24;
      }

      .cls-4 {
        fill: #009245;
      }

      .cls-5 {
        fill-rule: evenodd;
      }

      .cls-6 {
        fill: #fff;
      }

      .cls-7 {
        fill: #00942e;
      }

      .cls-8 {
        fill: #f18c22;
      }

      .cls-9 {
        clip-path: url(#clippath);
      }
    </style>
    <clipPath id="clippath">
      <path class="cls-1" d="M88.56,133.23v276.6h415.45V133.23H88.56ZM279.36,372.6c-.97,1.23-1.96,2.41-2.95,3.51-4.28,4.74-9.4,8.56-15.21,11.35-5.83,2.8-12.81,4.22-20.75,4.22-7.25,0-13.57-1.18-18.79-3.52-5.23-2.34-9.52-5.5-12.75-9.4-1.64-1.99-3.07-4.15-4.24-6.44v-.03h9.24c.74,1.51,1.59,2.96,2.53,4.3,2.43,3.47,5.68,6.32,9.66,8.48,3.96,2.15,8.79,3.24,14.36,3.24,6.32,0,11.82-1.32,16.34-3.92,4.55-2.62,8.57-6.23,11.96-10.72.32-.43.66-.9,1.01-1.39h9.64l-.04.32Z"/>
    </clipPath>
  </defs>
  <path class="cls-4" d="M377.32,269.57h3.07l-5.62,19.63h-9.51l12.06-19.63Z"/>
  <path class="cls-4" d="M379.48,353.3c14.67-13.25,38.31-35.97,38.31-57.67,0-12.12-7.34-18.03-15.49-18.03-7.44,0-15.49,4.79-19.05,13.96l-2.34-.61c3.26-15.08,12.12-22.72,24.35-22.72,13.25,0,22.62,9.07,22.62,22.31,0,14.77-11.51,32.5-35.76,54.92h20.48c9.58,0,10.49-.61,14.98-9.48l2.04.82-4.48,18.75h-45.64v-2.24Z"/>
  <path class="cls-4" d="M468.42,270.57c-12.43,5.91-20.17,21.19-23.33,37.09,4.58-4.18,10.49-6.52,16.51-6.52,12.84,0,21.4,10.09,21.4,25.47,0,17.22-10.8,30.67-25.47,30.67-16.4,0-25.27-16.71-25.27-35.86,0-21.4,11.11-45.85,35.25-53.18l.92,2.34ZM443.46,324.16c0,16.2,5.09,29.65,15.18,29.65,8.15,0,13.75-8.66,13.75-21.5,0-14.37-7.03-25.57-16.61-25.57-3.67,0-7.64,1.73-11.41,4.99-.61,4.18-.92,8.35-.92,12.43Z"/>
  <g>
    <circle class="cls-7" cx="345.27" cy="73.15" r="10.12"/>
    <circle class="cls-2" cx="314" cy="73.15" r="10.12"/>
    <circle class="cls-3" cx="282.74" cy="73.15" r="10.12"/>
    <path class="cls-5" d="M403.63,147.12c9.63-2.58,14.61-14.04,12.26-25.65-2.35-11.6-13.69-18.22-23.32-15.64-9.63,2.58-14.96,13.91-11.9,25.31,3.05,11.4,13.33,18.55,22.96,15.97ZM398.14,149.47c12.69,0,22.99-10.29,22.99-22.99s-10.29-22.99-22.99-22.99-22.99,10.29-22.99,22.99,10.29,22.99,22.99,22.99Z"/>
    <rect x="362.74" y="104.41" width="4.6" height="44.14"/>
    <path d="M310.34,125.56c-.51,13.12,9.97,23.91,22.97,23.91,10.55,0,20.46-7.59,22.07-17.01v-6.44h-25.06v1.84h17.67c1.05,0,1.88.87,1.84,1.92-.35,10.21-3.64,15.37-11.03,17.34-9.63,2.58-19.91-4.57-22.96-15.97-3.05-11.4,2.27-22.73,11.9-25.31,9.09-2.44,19.71,3.32,22.84,13.75l3.94-1.99c-3.59-8.56-12.21-14.49-22.17-14.08-11.89.48-21.55,10.16-22.01,22.05h0Z"/>
    <path class="cls-5" d="M278.14,128.78h7.82c6.29,0,11.95-4.12,11.95-11.26s-4.98-11.26-11.26-11.26h-8.51v22.53ZM272.62,104.41h14.71c8,0,16.09,4.95,16.09,13.1,0,5.07-4.92,10.45-11,12.37,4.27,1.5,6.39,4.27,6.86,6.48.03.15.06.29.09.44,1.01,4.73,2.17,10.15,8.18,10.82v.92c-9.66,0-10.57-1.61-12.87-9.43-.05-.17-.1-.33-.14-.49-1.91-6.51-2.29-7.79-7.67-8.01h-8.74v17.93h-5.52v-44.14Z"/>
    <rect x="259.29" y="104.41" width="4.6" height="44.14"/>
    <path d="M233.75,135.13c.41,1,1.4,1.7,2.55,1.7s2.13-.7,2.55-1.7h0l12.16-30.71h1.84l-17.47,44.14h-1.84l-17.47-44.14c3.33,0,6.32,2.03,7.55,5.13"/>
  </g>
  <g>
    <g>
      <path class="cls-4" d="M165.99,158.29c-.55,1.83-.67,3.52-.34,5.08.32,1.56,1.01,2.95,2.06,4.19,1.05,1.24,2.35,2.2,3.91,2.88,1.55.69,3.25,1.03,5.08,1.03,2.38,0,4.64-.87,6.79-2.61,2.15-1.74,3.98-3.89,5.49-6.45,1.51-2.56,2.58-5.35,3.23-8.37.64-3.02.62-5.81-.07-8.37-.69-2.56-2.13-4.71-4.32-6.45-2.2-1.74-5.4-2.61-9.61-2.61-5.76,0-10.73,1.33-14.89,3.98-4.17,2.65-7.55,5.95-10.16,9.88-2.61,3.94-4.39,8.24-5.35,12.9-.96,4.67-1.15,8.97-.55,12.9.59,3.94,1.97,7.23,4.12,9.88,2.15,2.65,5.06,3.98,8.72,3.98.18,0,.5-.02.96-.07.46-.05.94-.14,1.44-.27.5-.14.94-.32,1.3-.55.36-.23.55-.48.55-.75,0-.82-.48-1.49-1.44-1.99-.96-.5-2.08-.89-3.36-1.17-1.28-.27-2.56-.46-3.84-.55-1.28-.09-2.2-.14-2.75-.14-7.96,0-15.01,1.17-21.14,3.5-6.13,2.33-11.37,5.38-15.72,9.13-4.35,3.75-7.8,8.05-10.36,12.9-2.56,4.85-4.26,9.81-5.08,14.89-.82,5.08-.78,10.04.14,14.89.91,4.85,2.65,9.15,5.22,12.9,2.56,3.75,5.97,6.79,10.23,9.13,4.26,2.33,9.35,3.5,15.3,3.5,6.77,0,12.49-1.35,17.16-4.05,4.67-2.7,8.37-6.06,11.12-10.09,2.74-4.03,4.53-8.39,5.35-13.11.82-4.71.8-9.08-.07-13.11-.87-4.03-2.59-7.39-5.15-10.09-2.56-2.7-5.86-4.05-9.88-4.05s-7.53.89-10.23,2.68c-2.7,1.78-4.74,3.98-6.11,6.59s-2.13,5.33-2.26,8.17c-.14,2.84.25,5.35,1.17,7.55l-1.1.69c-1.28-3.48-1.67-6.86-1.17-10.16.5-3.29,1.72-6.25,3.64-8.85,1.92-2.61,4.48-4.71,7.69-6.31,3.2-1.6,6.95-2.4,11.25-2.4,5.58,0,10.04,1.44,13.38,4.32,3.34,2.88,5.56,6.45,6.66,10.71,1.1,4.26,1.05,8.9-.14,13.93-1.19,5.03-3.5,9.68-6.93,13.93-3.43,4.26-8.03,7.82-13.79,10.71-5.76,2.88-12.63,4.32-20.59,4.32-7.05,0-13.22-1.19-18.53-3.57-5.31-2.38-9.7-5.54-13.18-9.47-3.48-3.94-5.99-8.39-7.55-13.38-1.56-4.99-2.06-10.11-1.51-15.37.55-5.26,2.2-10.38,4.94-15.37,2.75-4.99,6.68-9.45,11.8-13.38,5.12-3.93,11.44-7.09,18.94-9.47,7.5-2.38,16.33-3.57,26.49-3.57.82,0,1.94.05,3.36.14,1.42.09,2.84.32,4.26.69,1.42.37,2.63.92,3.64,1.65,1.01.73,1.51,1.69,1.51,2.88,0,.55-.21,1.01-.62,1.37-.41.37-.94.66-1.58.89-.64.23-1.28.39-1.92.48-.64.09-1.15.14-1.51.14-4.39,0-8.21-1.39-11.46-4.19-3.25-2.79-5.68-6.27-7.27-10.43-1.6-4.16-2.24-8.67-1.92-13.52.32-4.85,1.87-9.36,4.67-13.52,2.79-4.16,6.95-7.64,12.49-10.43,5.54-2.79,12.74-4.19,21.62-4.19,4.48,0,8.19.94,11.12,2.81,2.93,1.88,5.1,4.19,6.52,6.93,1.42,2.75,2.06,5.76,1.92,9.06-.14,3.29-1.03,6.31-2.68,9.06-1.65,2.75-4.03,5.06-7.14,6.93-3.11,1.88-6.91,2.81-11.39,2.81-2.11,0-4-.41-5.7-1.24-1.69-.82-3.11-1.92-4.26-3.29-1.15-1.37-1.92-2.95-2.33-4.74-.41-1.78-.3-3.68.34-5.7l1.37.41Z"/>
      <path class="cls-4" d="M240.25,190.17c-3.48-14.62-11.04-22.08-21.37-22.08-16.97,0-25.56,18.81-25.56,38.23,0,20.55,9.61,41.81,28.93,41.81,9.1,0,15.64-4.7,20.04-14.41l2.25.82c-5.72,14.52-15.33,21.98-28.42,21.98-22.49,0-33.74-22.9-33.74-45.8s11.45-46.31,34.66-46.31c9.41,0,14.82,4.09,18.61,4.09,1.84,0,2.86-1.23,3.27-4.09h2.15l1.43,25.35-2.25.41Z"/>
      <path class="cls-4" d="M244.55,210.31c0-27.09,12.78-45.9,33.12-45.9s33.02,18.81,33.02,46-12.78,46.11-33.02,46.11-33.12-18.5-33.12-46.21ZM256.4,210.1c0,25.66,8.28,42.94,21.26,42.94s21.16-17.07,21.16-42.53-8.28-42.63-21.37-42.63-21.06,16.77-21.06,42.22Z"/>
      <path class="cls-4" d="M318.42,210.46h21.34v10.35h-21.34v-10.35Z"/>
      <path class="cls-4" d="M351.1,240.87c0,5.52,1.43,10.32,9.1,11.65v2.25h-21.77v-2.25c7.67-1.33,9.1-6.13,9.1-11.65v-62.56c0-5.52-1.43-10.33-9.1-11.65v-2.25h17.48l42.94,68.7v-54.8c0-5.52-1.43-10.33-9.1-11.65v-2.25h21.77v2.25c-7.67,1.33-9.1,6.13-9.1,11.65v78.21h-2.25l-49.07-78.61v62.97Z"/>
      <path class="cls-4" d="M497.72,190.17c-3.48-14.62-11.04-22.08-21.37-22.08-16.97,0-25.56,18.81-25.56,38.23,0,20.55,9.61,41.81,28.93,41.81,9.1,0,15.64-4.7,20.04-14.41l2.25.82c-5.72,14.52-15.33,21.98-28.42,21.98-22.49,0-33.74-22.9-33.74-45.8s11.45-46.31,34.66-46.31c9.41,0,14.82,4.09,18.61,4.09,1.84,0,2.86-1.23,3.27-4.09h2.15l1.43,25.35-2.25.41Z"/>
      <path class="cls-4" d="M235.87,355.85h-25.76v-2.25c5.72,0,7.77-3.78,5.93-9.61l-3.68-11.55h-28.62l-3.37,11.25c-2.04,6.75,0,9.92,6.24,9.92v2.25h-19.53v-2.25c4.4,0,7.77-3.07,9.81-9.92l23.51-78.21h2.25l25.05,78.92c2.25,7.16,3.58,9.2,8.18,9.2v2.25ZM184.86,328.86h26.38l-13.49-42.94-12.88,42.94Z"/>
      <path class="cls-4" d="M253.46,341.95c0,5.52-.61,10.32,7.05,11.65v2.25h-24.64v-2.25c7.67-1.33,7.05-6.13,7.05-11.65v-62.56c0-5.52.61-10.33-7.05-11.65v-2.25h24.64v2.25c-7.67,1.33-7.05,6.13-7.05,11.65v62.56Z"/>
      <path class="cls-4" d="M325.99,274.56c-4.04,2.56-7.48,6.2-10.32,10.91-2.84,4.71-5.42,10.04-7.74,15.99-2.32,5.95-4.52,12.26-6.58,18.94-2.06,6.68-4.3,13.34-6.71,19.97-2.41,6.64-5.12,12.97-8.13,19.01-3.01,6.04-6.62,11.39-10.84,16.06-4.22,4.67-9.18,8.37-14.9,11.12-5.72,2.75-12.49,4.12-20.32,4.12-7.14,0-13.27-1.15-18.38-3.43-5.12-2.29-9.25-5.33-12.39-9.13-3.14-3.8-5.38-8.1-6.71-12.9-1.33-4.8-1.76-9.72-1.29-14.75.47-5.03,1.76-9.95,3.87-14.76,2.11-4.8,4.99-9.1,8.64-12.9,3.65-3.8,8.06-6.84,13.22-9.13,5.16-2.29,11.01-3.43,17.55-3.43,4.64,0,8.47.89,11.48,2.68,3.01,1.78,5.18,4.1,6.52,6.93,1.33,2.84,1.87,5.97,1.61,9.4-.26,3.43-1.35,6.79-3.29,10.09-1.94,3.29-4.69,6.31-8.26,9.06-3.57,2.75-7.98,4.8-13.22,6.18l-.26-1.37c4.13-1.1,7.68-2.88,10.64-5.35,2.97-2.47,5.29-5.26,6.97-8.37,1.68-3.11,2.71-6.29,3.1-9.54.39-3.25.08-6.25-.9-8.99-.99-2.75-2.69-4.99-5.1-6.73-2.41-1.74-5.51-2.61-9.29-2.61-5.42,0-10.28,1.12-14.58,3.36-4.3,2.24-7.96,5.17-10.97,8.78-3.01,3.62-5.4,7.76-7.16,12.42-1.76,4.67-2.82,9.43-3.16,14.27-.34,4.85.02,9.61,1.1,14.27,1.07,4.67,2.88,8.81,5.42,12.42,2.54,3.61,5.87,6.54,10,8.78,4.13,2.24,9.07,3.36,14.84,3.36,6.54,0,12.15-1.35,16.84-4.05,4.69-2.7,8.77-6.36,12.26-10.98,3.48-4.62,6.49-9.93,9.03-15.92,2.54-5.99,4.94-12.26,7.22-18.8,2.28-6.54,4.6-13.18,6.97-19.9,2.36-6.73,5.05-13.06,8.06-19.01,3.01-5.95,6.52-11.32,10.51-16.13,4-4.8,8.79-8.58,14.39-11.32l.26,1.37ZM283.02,316.56c-5.08-1.01-9.03-3.09-11.87-6.25-2.84-3.16-4.56-6.82-5.16-10.98-.6-4.16-.04-8.55,1.68-13.18,1.72-4.62,4.58-8.85,8.58-12.7,4-3.84,9.16-7.02,15.48-9.54,6.32-2.52,13.82-3.77,22.51-3.77s16.73,1.72,23.09,5.15c6.36,3.43,11.07,7.73,14.13,12.9,3.05,5.17,4.3,10.77,3.74,16.81-.56,6.04-3.21,11.65-7.93,16.81-4.73,5.17-11.72,9.47-20.97,12.9-9.25,3.43-21.05,5.15-35.41,5.15v-1.37c8.86,0,16.58-.96,23.16-2.88,6.58-1.92,12.15-4.46,16.71-7.62,4.56-3.16,8.11-6.75,10.64-10.77,2.54-4.03,4.17-8.14,4.9-12.35.73-4.21.58-8.33-.45-12.35-1.03-4.03-2.88-7.62-5.55-10.77-2.67-3.16-6.09-5.7-10.26-7.62-4.17-1.92-10.2-3.19-15.78-2.78-4.72.35-4.87,1.11-10.55,3.54-5.68,2.43-10.47,5.49-14.39,9.2-3.92,3.71-6.88,7.75-8.9,12.15-2.02,4.39-3.03,8.58-3.03,12.56s1.1,7.48,3.29,10.5c2.19,3.02,2.74,2.24,2.46,5.9l-.13,1.37ZM299.93,329.18c.77-.27,1.59-.55,2.45-.82.86-.27,1.72-.41,2.58-.41,3.96,0,7.63,1.12,11.03,3.36,3.4,2.24,6.6,5.22,9.61,8.92,3.01,3.71,5.87,7.89,8.58,12.56,2.71,4.67,5.37,9.47,8,14.41,2.62,4.94,5.25,9.75,7.87,14.41,2.62,4.67,5.35,8.85,8.19,12.56,2.84,3.71,5.83,6.68,8.97,8.92,3.14,2.24,6.52,3.36,10.13,3.36,1.46,0,2.99-.21,4.58-.62,1.59-.41,3.03-1.05,4.32-1.92,1.29-.87,2.34-1.99,3.16-3.36.82-1.37,1.23-2.97,1.23-4.8,0-1.19-.24-2.43-.71-3.71-.47-1.28-1.44-1.92-2.9-1.92l.13-1.37c1.81.18,3.05.98,3.74,2.4.69,1.42,1.03,3,1.03,4.74,0,2.01-.45,3.75-1.35,5.22-.9,1.46-2.06,2.7-3.48,3.71-1.42,1.01-2.99,1.76-4.71,2.26-1.72.5-3.4.75-5.03.75-5.42,0-10.32-1.12-14.71-3.36-4.39-2.24-8.41-5.22-12.06-8.92-3.66-3.71-6.97-7.89-9.93-12.56-2.97-4.67-5.76-9.47-8.39-14.41-2.62-4.94-5.08-9.75-7.35-14.41-2.28-4.67-4.54-8.85-6.77-12.56-2.24-3.71-4.5-6.68-6.77-8.92-2.28-2.24-4.71-3.36-7.29-3.36l-4.13-.14Z"/>
      <path class="cls-4" d="M128.94,355.85v-2.25c7.67-1.33,7.05-6.13,7.05-11.65v-62.56c0-5.52.61-11.27-7.05-12.6v-1.3h55.1l.82,17.99h-2.25c-1.33-10.53-5.21-14.62-13.8-14.62h-22.29v40.07h13.09c6.54,0,10.32-.41,11.65-8.08h2.25v19.73h-2.25c-1.33-7.67-5.11-8.08-11.65-8.08h-13.09v29.44c0,5.52-.61,10.32,7.05,11.65v2.25h-24.64Z"/>
      <path class="cls-4" d="M433.47,240.87c0,5.52-.61,10.32,7.05,11.65v2.25h-24.64v-2.25c7.67-1.33,7.05-6.13,7.05-11.65v-62.56c0-5.52.61-10.33-7.05-11.65v-2.25h24.64v2.25c-7.67,1.33-7.05,6.13-7.05,11.65v62.56Z"/>
    </g>
    <path class="cls-8" d="M486.94,424.22c-1.42,2.07-1.5,4.83-.18,6.98,1.28,2.08,3.51,3.11,6.14,2.54l-.02,9c-1.55-.34-3-.06-4.15.64H119.92c-.81-.31-1.71-.43-2.65-.33l.06-8.78c3.51.42,6.27-2.33,6.34-5.88.06-3.59-2.69-6.49-6.37-6.18v-8.67c3.57.28,6.25-2.43,6.35-5.84.11-3.73-2.69-6.61-6.36-6.28v-8.72c3.55.31,6.27-2.39,6.35-5.97.07-3.55-2.67-6.45-6.35-6.16v-8.28h375.53l.09,7.95c-2.52-.38-4.72.44-6.08,2.49-1.3,1.96-1.38,4.64-.19,6.68,1.3,2.23,3.6,3.28,6.22,2.71l.08,8.92c-2.45-.3-4.75.41-6.05,2.44-1.38,2.15-1.4,4.87-.06,7.03,1.28,2.05,3.55,2.93,6.11,2.51l-.04,8.86c-2.44-.39-4.63.44-5.93,2.35Z"/>
    <g class="cls-9">
      <g>
        <path class="cls-4" d="M165.99,158.29c-.55,1.83-.67,3.52-.34,5.08.32,1.56,1.01,2.95,2.06,4.19,1.05,1.24,2.35,2.2,3.91,2.88,1.55.69,3.25,1.03,5.08,1.03,2.38,0,4.64-.87,6.79-2.61,2.15-1.74,3.98-3.89,5.49-6.45,1.51-2.56,2.58-5.35,3.23-8.37.64-3.02.62-5.81-.07-8.37-.69-2.56-2.13-4.71-4.32-6.45-2.2-1.74-5.4-2.61-9.61-2.61-5.76,0-10.73,1.33-14.89,3.98-4.17,2.65-7.55,5.95-10.16,9.88-2.61,3.94-4.39,8.24-5.35,12.9-.96,4.67-1.15,8.97-.55,12.9.59,3.94,1.97,7.23,4.12,9.88,2.15,2.65,5.06,3.98,8.72,3.98.18,0,.5-.02.96-.07.46-.05.94-.14,1.44-.27.5-.14.94-.32,1.3-.55.36-.23.55-.48.55-.75,0-.82-.48-1.49-1.44-1.99-.96-.5-2.08-.89-3.36-1.17-1.28-.27-2.56-.46-3.84-.55-1.28-.09-2.2-.14-2.75-.14-7.96,0-15.01,1.17-21.14,3.5-6.13,2.33-11.37,5.38-15.72,9.13-4.35,3.75-7.8,8.05-10.36,12.9-2.56,4.85-4.26,9.81-5.08,14.89-.82,5.08-.78,10.04.14,14.89.91,4.85,2.65,9.15,5.22,12.9,2.56,3.75,5.97,6.79,10.23,9.13,4.26,2.33,9.35,3.5,15.3,3.5,6.77,0,12.49-1.35,17.16-4.05,4.67-2.7,8.37-6.06,11.12-10.09,2.74-4.03,4.53-8.39,5.35-13.11.82-4.71.8-9.08-.07-13.11-.87-4.03-2.59-7.39-5.15-10.09-2.56-2.7-5.86-4.05-9.88-4.05s-7.53.89-10.23,2.68c-2.7,1.78-4.74,3.98-6.11,6.59s-2.13,5.33-2.26,8.17c-.14,2.84.25,5.35,1.17,7.55l-1.1.69c-1.28-3.48-1.67-6.86-1.17-10.16.5-3.29,1.72-6.25,3.64-8.85,1.92-2.61,4.48-4.71,7.69-6.31,3.2-1.6,6.95-2.4,11.25-2.4,5.58,0,10.04,1.44,13.38,4.32,3.34,2.88,5.56,6.45,6.66,10.71,1.1,4.26,1.05,8.9-.14,13.93-1.19,5.03-3.5,9.68-6.93,13.93-3.43,4.26-8.03,7.82-13.79,10.71-5.76,2.88-12.63,4.32-20.59,4.32-7.05,0-13.22-1.19-18.53-3.57-5.31-2.38-9.7-5.54-13.18-9.47-3.48-3.94-5.99-8.39-7.55-13.38-1.56-4.99-2.06-10.11-1.51-15.37.55-5.26,2.2-10.38,4.94-15.37,2.75-4.99,6.68-9.45,11.8-13.38,5.12-3.93,11.44-7.09,18.94-9.47,7.5-2.38,16.33-3.57,26.49-3.57.82,0,1.94.05,3.36.14,1.42.09,2.84.32,4.26.69,1.42.37,2.63.92,3.64,1.65,1.01.73,1.51,1.69,1.51,2.88,0,.55-.21,1.01-.62,1.37-.41.37-.94.66-1.58.89-.64.23-1.28.39-1.92.48-.64.09-1.15.14-1.51.14-4.39,0-8.21-1.39-11.46-4.19-3.25-2.79-5.68-6.27-7.27-10.43-1.6-4.16-2.24-8.67-1.92-13.52.32-4.85,1.87-9.36,4.67-13.52,2.79-4.16,6.95-7.64,12.49-10.43,5.54-2.79,12.74-4.19,21.62-4.19,4.48,0,8.19.94,11.12,2.81,2.93,1.88,5.1,4.19,6.52,6.93,1.42,2.75,2.06,5.76,1.92,9.06-.14,3.29-1.03,6.31-2.68,9.06-1.65,2.75-4.03,5.06-7.14,6.93-3.11,1.88-6.91,2.81-11.39,2.81-2.11,0-4-.41-5.7-1.24-1.69-.82-3.11-1.92-4.26-3.29-1.15-1.37-1.92-2.95-2.33-4.74-.41-1.78-.3-3.68.34-5.7l1.37.41Z"/>
        <path class="cls-4" d="M240.25,190.17c-3.48-14.62-11.04-22.08-21.37-22.08-16.97,0-25.56,18.81-25.56,38.23,0,20.55,9.61,41.81,28.93,41.81,9.1,0,15.64-4.7,20.04-14.41l2.25.82c-5.72,14.52-15.33,21.98-28.42,21.98-22.49,0-33.74-22.9-33.74-45.8s11.45-46.31,34.66-46.31c9.41,0,14.82,4.09,18.61,4.09,1.84,0,2.86-1.23,3.27-4.09h2.15l1.43,25.35-2.25.41Z"/>
        <path class="cls-4" d="M244.55,210.31c0-27.09,12.78-45.9,33.12-45.9s33.02,18.81,33.02,46-12.78,46.11-33.02,46.11-33.12-18.5-33.12-46.21ZM256.4,210.1c0,25.66,8.28,42.94,21.26,42.94s21.16-17.07,21.16-42.53-8.28-42.63-21.37-42.63-21.06,16.77-21.06,42.22Z"/>
        <path class="cls-4" d="M318.42,210.46h21.34v10.35h-21.34v-10.35Z"/>
        <path class="cls-4" d="M351.1,240.87c0,5.52,1.43,10.32,9.1,11.65v2.25h-21.77v-2.25c7.67-1.33,9.1-6.13,9.1-11.65v-62.56c0-5.52-1.43-10.33-9.1-11.65v-2.25h17.48l42.94,68.7v-54.8c0-5.52-1.43-10.33-9.1-11.65v-2.25h21.77v2.25c-7.67,1.33-9.1,6.13-9.1,11.65v78.21h-2.25l-49.07-78.61v62.97Z"/>
        <path class="cls-4" d="M497.72,190.17c-3.48-14.62-11.04-22.08-21.37-22.08-16.97,0-25.56,18.81-25.56,38.23,0,20.55,9.61,41.81,28.93,41.81,9.1,0,15.64-4.7,20.04-14.41l2.25.82c-5.72,14.52-15.33,21.98-28.42,21.98-22.49,0-33.74-22.9-33.74-45.8s11.45-46.31,34.66-46.31c9.41,0,14.82,4.09,18.61,4.09,1.84,0,2.86-1.23,3.27-4.09h2.15l1.43,25.35-2.25.41Z"/>
        <path class="cls-4" d="M235.87,355.85h-25.76v-2.25c5.72,0,7.77-3.78,5.93-9.61l-3.68-11.55h-28.62l-3.37,11.25c-2.04,6.75,0,9.92,6.24,9.92v2.25h-19.53v-2.25c4.4,0,7.77-3.07,9.81-9.92l23.51-78.21h2.25l25.05,78.92c2.25,7.16,3.58,9.2,8.18,9.2v2.25ZM184.86,328.86h26.38l-13.49-42.94-12.88,42.94Z"/>
        <path class="cls-4" d="M253.46,341.95c0,5.52-.61,10.32,7.05,11.65v2.25h-24.64v-2.25c7.67-1.33,7.05-6.13,7.05-11.65v-62.56c0-5.52.61-10.33-7.05-11.65v-2.25h24.64v2.25c-7.67,1.33-7.05,6.13-7.05,11.65v62.56Z"/>
        <path class="cls-4" d="M325.99,274.56c-4.04,2.56-7.48,6.2-10.32,10.91-2.84,4.71-5.42,10.04-7.74,15.99-2.32,5.95-4.52,12.26-6.58,18.94-2.06,6.68-4.3,13.34-6.71,19.97-2.41,6.64-5.12,12.97-8.13,19.01-3.01,6.04-6.62,11.39-10.84,16.06-4.22,4.67-9.18,8.37-14.9,11.12-5.72,2.75-12.49,4.12-20.32,4.12-7.14,0-13.27-1.15-18.38-3.43-5.12-2.29-9.25-5.33-12.39-9.13-3.14-3.8-5.38-8.1-6.71-12.9-1.33-4.8-1.76-9.72-1.29-14.75.47-5.03,1.76-9.95,3.87-14.76,2.11-4.8,4.99-9.1,8.64-12.9,3.65-3.8,8.06-6.84,13.22-9.13,5.16-2.29,11.01-3.43,17.55-3.43,4.64,0,8.47.89,11.48,2.68,3.01,1.78,5.18,4.1,6.52,6.93,1.33,2.84,1.87,5.97,1.61,9.4-.26,3.43-1.35,6.79-3.29,10.09-1.94,3.29-4.69,6.31-8.26,9.06-3.57,2.75-7.98,4.8-13.22,6.18l-.26-1.37c4.13-1.1,7.68-2.88,10.64-5.35,2.97-2.47,5.29-5.26,6.97-8.37,1.68-3.11,2.71-6.29,3.1-9.54.39-3.25.08-6.25-.9-8.99-.99-2.75-2.69-4.99-5.1-6.73-2.41-1.74-5.51-2.61-9.29-2.61-5.42,0-10.28,1.12-14.58,3.36-4.3,2.24-7.96,5.17-10.97,8.78-3.01,3.62-5.4,7.76-7.16,12.42-1.76,4.67-2.82,9.43-3.16,14.27-.34,4.85.02,9.61,1.1,14.27,1.07,4.67,2.88,8.81,5.42,12.42,2.54,3.61,5.87,6.54,10,8.78,4.13,2.24,9.07,3.36,14.84,3.36,6.54,0,12.15-1.35,16.84-4.05,4.69-2.7,8.77-6.36,12.26-10.98,3.48-4.62,6.49-9.93,9.03-15.92,2.54-5.99,4.94-12.26,7.22-18.8,2.28-6.54,4.6-13.18,6.97-19.9,2.36-6.73,5.05-13.06,8.06-19.01,3.01-5.95,6.52-11.32,10.51-16.13,4-4.8,8.79-8.58,14.39-11.32l.26,1.37ZM283.02,316.56c-5.08-1.01-9.03-3.09-11.87-6.25-2.84-3.16-4.56-6.82-5.16-10.98-.6-4.16-.04-8.55,1.68-13.18,1.72-4.62,4.58-8.85,8.58-12.7,4-3.84,9.16-7.02,15.48-9.54,6.32-2.52,13.82-3.77,22.51-3.77s16.73,1.72,23.09,5.15c6.36,3.43,11.07,7.73,14.13,12.9,3.05,5.17,4.3,10.77,3.74,16.81-.56,6.04-3.21,11.65-7.93,16.81-4.73,5.17-11.72,9.47-20.97,12.9-9.25,3.43-21.05,5.15-35.41,5.15v-1.37c8.86,0,16.58-.96,23.16-2.88,6.58-1.92,12.15-4.46,16.71-7.62,4.56-3.16,8.11-6.75,10.64-10.77,2.54-4.03,4.17-8.14,4.9-12.35.73-4.21.58-8.33-.45-12.35-1.03-4.03-2.88-7.62-5.55-10.77-2.67-3.16-6.09-5.7-10.26-7.62-4.17-1.92-10.2-3.19-15.78-2.78-4.72.35-4.87,1.11-10.55,3.54-5.68,2.43-10.47,5.49-14.39,9.2-3.92,3.71-6.88,7.75-8.9,12.15-2.02,4.39-3.03,8.58-3.03,12.56s1.1,7.48,3.29,10.5c2.19,3.02,2.74,2.24,2.46,5.9l-.13,1.37ZM299.93,329.18c.77-.27,1.59-.55,2.45-.82.86-.27,1.72-.41,2.58-.41,3.96,0,7.63,1.12,11.03,3.36,3.4,2.24,6.6,5.22,9.61,8.92,3.01,3.71,5.87,7.89,8.58,12.56,2.71,4.67,5.37,9.47,8,14.41,2.62,4.94,5.25,9.75,7.87,14.41,2.62,4.67,5.35,8.85,8.19,12.56,2.84,3.71,5.83,6.68,8.97,8.92,3.14,2.24,6.52,3.36,10.13,3.36,1.46,0,2.99-.21,4.58-.62,1.59-.41,3.03-1.05,4.32-1.92,1.29-.87,2.34-1.99,3.16-3.36.82-1.37,1.23-2.97,1.23-4.8,0-1.19-.24-2.43-.71-3.71-.47-1.28-1.44-1.92-2.9-1.92l.13-1.37c1.81.18,3.05.98,3.74,2.4.69,1.42,1.03,3,1.03,4.74,0,2.01-.45,3.75-1.35,5.22-.9,1.46-2.06,2.7-3.48,3.71-1.42,1.01-2.99,1.76-4.71,2.26-1.72.5-3.4.75-5.03.75-5.42,0-10.32-1.12-14.71-3.36-4.39-2.24-8.41-5.22-12.06-8.92-3.66-3.71-6.97-7.89-9.93-12.56-2.97-4.67-5.76-9.47-8.39-14.41-2.62-4.94-5.08-9.75-7.35-14.41-2.28-4.67-4.54-8.85-6.77-12.56-2.24-3.71-4.5-6.68-6.77-8.92-2.28-2.24-4.71-3.36-7.29-3.36l-4.13-.14Z"/>
        <path class="cls-4" d="M128.94,355.85v-2.25c7.67-1.33,7.05-6.13,7.05-11.65v-62.56c0-5.52.61-11.27-7.05-12.6v-1.3h55.1l.82,17.99h-2.25c-1.33-10.53-5.21-14.62-13.8-14.62h-22.29v40.07h13.09c6.54,0,10.32-.41,11.65-8.08h2.25v19.73h-2.25c-1.33-7.67-5.11-8.08-11.65-8.08h-13.09v29.44c0,5.52-.61,10.32,7.05,11.65v2.25h-24.64Z"/>
        <path class="cls-4" d="M433.47,240.87c0,5.52-.61,10.32,7.05,11.65v2.25h-24.64v-2.25c7.67-1.33,7.05-6.13,7.05-11.65v-62.56c0-5.52.61-10.33-7.05-11.65v-2.25h24.64v2.25c-7.67,1.33-7.05,6.13-7.05,11.65v62.56Z"/>
      </g>
    </g>
  </g>
  <g>
    <path class="cls-6" d="M171.76,423.99c5.7-5.14,14.88-13.97,14.88-22.39,0-4.71-2.85-7-6.01-7-2.89,0-6.01,1.86-7.4,5.42l-.91-.24c1.27-5.86,4.71-8.82,9.46-8.82,5.14,0,8.78,3.52,8.78,8.67,0,5.74-4.47,12.62-13.89,21.33h7.95c3.72,0,4.08-.24,5.82-3.68l.79.32-1.74,7.28h-17.73v-.87Z"/>
    <path class="cls-6" d="M195.62,425.53c0-10.45,4.27-20.14,11.95-30.66h-9.14c-3.72,0-4.08.24-5.82,3.68l-.79-.32,1.74-7.28h18.12v.87c-5.7,5.14-14.36,19.59-10.25,33.55l-5.82.16Z"/>
    <path class="cls-6" d="M219.36,402.31h5.02v1.11h-5.02v15.59c0,2.53.79,3.72,2.57,3.72,1.23,0,2.1-.59,2.61-1.82l.83.24c-.59,2.65-2.65,4.39-5.18,4.39-2.93,0-4.75-2.29-4.75-6.05v-16.06h-3.36v-1.07c3.13-.24,5.1-2.41,6.21-6.29h1.07v6.25Z"/>
    <path class="cls-6" d="M245.43,419.48c0,2.14-.24,4,2.73,4.51v.87h-9.38v-.87c2.97-.51,2.73-2.37,2.73-4.51v-9.93c0-2.69-.51-5.1-3.64-5.1-2.18,0-4,1.19-5.38,2.81v12.23c0,2.14-.24,4,2.73,4.51v.87h-9.38v-.87c2.97-.51,2.73-2.37,2.73-4.51v-22.87c0-2.69-.75-3.88-2.93-3.17l-.32-.91,7.16-2.65v16.02c2.29-2.73,4.95-4.12,7.68-4.12,4.51,0,5.26,4.19,5.26,7.91v9.77Z"/>
    <path class="cls-6" d="M249.55,409.23h11.04v1.58h-11.04v-1.58Z"/>
    <path class="cls-6" d="M281.28,414.33c0,5.38-4.11,11.2-11.12,11.2-4,0-7.28-1.9-7.72-4.59-.2-1.27.28-2.25,1.27-2.69.91-.4,1.9-.12,2.61.67,1.7,1.9.28,5.26,4.43,5.26,4.47,0,6.92-3.92,6.92-7.99,0-4.51-2.97-9.22-9.34-9.22v-.87c4.59-.24,7.56-2.53,7.56-6.29,0-3.25-2.22-5.42-5.54-5.42-2.93,0-4.75,1.66-5.94,4.04l-.75-.36c1.7-4.75,4.59-7.12,8.67-7.12s7.16,2.85,7.16,6.81c0,3.52-2.33,6.69-4.99,7.99,4.67,1.07,6.77,4.71,6.77,8.59Z"/>
    <path class="cls-6" d="M281.35,394.59l6.57-3.64h.87v28.53c0,2.14-.24,4,2.73,4.51v.87h-9.38v-.87c2.97-.51,2.73-2.37,2.73-4.51l.04-21.09c0-3.44-.75-4.15-3.17-3.01l-.4-.79Z"/>
    <path class="cls-6" d="M307.35,409.55h-1.07c-.63-4.11-2.65-6.57-5.9-6.57-2.45,0-4.15,1.38-4.15,3.36,0,5.38,12.46,4.75,12.46,12.42,0,4.04-3.4,6.77-8.31,6.77-3.52,0-7.32-1.42-7.32-2.93v-5.58h1.07c.71,4.71,4.51,7.28,7.4,7.28,2.1,0,3.6-1.38,3.6-3.48,0-5.93-12.23-5.42-12.23-12.9,0-3.8,3.17-6.13,8.35-6.13,3.44,0,5.9,1.03,6.09,2.53v5.22Z"/>
    <path class="cls-6" d="M316.17,402.31h5.02v1.11h-5.02v15.59c0,2.53.79,3.72,2.57,3.72,1.23,0,2.1-.59,2.61-1.82l.83.24c-.59,2.65-2.65,4.39-5.18,4.39-2.93,0-4.75-2.29-4.75-6.05v-16.06h-3.36v-1.07c3.13-.24,5.1-2.41,6.21-6.29h1.07v6.25Z"/>
    <path class="cls-6" d="M355.14,394.87l-9.38,29.99h-.87l-10.21-29.56v24.17c0,2.14.55,4,3.52,4.51v.87h-8.43v-.87c2.97-.51,3.52-2.37,3.52-4.51v-24.21c0-2.14-.55-4-3.52-4.51v-.87h7.16l9.89,27.7,8.31-27.7h6.8v.87c-2.97.51-2.73,2.37-2.73,4.51v24.21c0,2.14-.24,4,2.73,4.51v.87h-9.54v-.87c2.97-.51,2.73-2.37,2.73-4.51v-24.61Z"/>
    <path class="cls-6" d="M378.92,410.22v8.31c0,2.37.44,3.36,1.58,3.36.28,0,.67-.08,1.07-.2l.32.91-5.74,2.25h-1.15v-3.13c-2.65,2.61-4.87,3.8-7.28,3.8-3.24,0-5.38-2.1-5.38-5.1,0-4.19,4.12-6.96,12.66-7.2v-3.96c0-4.35-1.34-6.29-4.08-6.29-3.84,0-2.61,3.8-4.04,5.38-.4.44-1.03.67-1.66.67-1.15,0-2.33-.83-1.94-2.85.48-2.49,3.44-4.39,8.23-4.39s7.4,1.9,7.4,8.43ZM375,414.41c-3.56.16-8.55,1.07-8.55,4.95,0,2.1,1.38,3.4,3.4,3.4,1.62,0,3.44-.87,5.14-2.41v-5.93Z"/>
    <path class="cls-6" d="M396.52,407.01c-2.33,0-1.74-2.53-3.76-2.53-1.27,0-2.85.99-4.19,2.65v12.34c0,2.14-.24,4,2.73,4.51v.87h-9.38v-.87c2.97-.51,2.73-2.37,2.73-4.51v-10.96c0-2.69-.75-3.88-2.93-3.17l-.32-.91,7.16-2.65v3.96c2.1-2.45,4.51-3.96,6.57-3.96,1.94,0,3.76,1.31,3.76,2.97,0,1.31-.99,2.25-2.37,2.25Z"/>
    <path class="cls-6" d="M401.55,411.37c0,5.03,2.69,10.49,7.83,10.49,2.89,0,5.22-1.7,6.37-4.71l.83.16c-.99,5.06-4.39,8.23-8.94,8.23-6.17,0-9.34-5.86-9.34-11.79s3.24-11.95,9.81-11.95c3.72,0,6.88,1.9,7.36,4.39.4,2.02-.79,2.85-1.94,2.85-.63,0-1.27-.24-1.66-.67-1.42-1.58-.16-5.42-4.15-5.42s-6.17,4.08-6.17,8.43Z"/>
    <path class="cls-6" d="M436.08,419.48c0,2.14-.24,4,2.73,4.51v.87h-9.38v-.87c2.97-.51,2.73-2.37,2.73-4.51v-9.93c0-2.69-.51-5.1-3.64-5.1-2.18,0-4,1.19-5.38,2.81v12.23c0,2.14-.24,4,2.73,4.51v.87h-9.38v-.87c2.97-.51,2.73-2.37,2.73-4.51v-22.87c0-2.69-.75-3.88-2.93-3.17l-.32-.91,7.16-2.65v16.02c2.29-2.73,4.95-4.12,7.68-4.12,4.51,0,5.26,4.19,5.26,7.91v9.77Z"/>
  </g>
</svg>