<svg width="494" height="471" viewBox="0 0 494 471" fill="none" xmlns="http://www.w3.org/2000/svg">
<path d="M317.287 237.172H320.357L314.737 256.802H305.227L317.287 237.172Z" fill="#009245"/>
<path d="M319.445 320.902C334.115 307.652 357.755 284.932 357.755 263.232C357.755 251.112 350.415 245.202 342.265 245.202C334.825 245.202 326.775 249.992 323.215 259.162L320.875 258.552C324.135 243.472 332.995 235.832 345.225 235.832C358.475 235.832 367.845 244.902 367.845 258.142C367.845 272.912 356.335 290.642 332.085 313.062H352.565C362.145 313.062 363.055 312.452 367.545 303.582L369.585 304.402L365.105 323.152H319.465V320.912L319.445 320.902Z" fill="#009245"/>
<path d="M408.387 238.172C395.957 244.082 388.217 259.362 385.057 275.262C389.637 271.082 395.547 268.742 401.567 268.742C414.407 268.742 422.967 278.832 422.967 294.212C422.967 311.432 412.167 324.882 397.497 324.882C381.097 324.882 372.227 308.172 372.227 289.022C372.227 267.622 383.337 243.172 407.477 235.842L408.397 238.182L408.387 238.172ZM383.427 291.762C383.427 307.962 388.517 321.412 398.607 321.412C406.757 321.412 412.357 312.752 412.357 299.912C412.357 285.542 405.327 274.342 395.747 274.342C392.077 274.342 388.107 276.072 384.337 279.332C383.727 283.512 383.417 287.682 383.417 291.762H383.427Z" fill="#009245"/>
<path d="M285.237 50.8709C290.826 50.8709 295.357 46.34 295.357 40.7509C295.357 35.1617 290.826 30.6309 285.237 30.6309C279.648 30.6309 275.117 35.1617 275.117 40.7509C275.117 46.34 279.648 50.8709 285.237 50.8709Z" fill="#00942E"/>
<path d="M253.972 50.8709C259.561 50.8709 264.092 46.34 264.092 40.7509C264.092 35.1617 259.561 30.6309 253.972 30.6309C248.382 30.6309 243.852 35.1617 243.852 40.7509C243.852 46.34 248.382 50.8709 253.972 50.8709Z" fill="#00C3D4"/>
<path d="M222.706 50.8709C228.295 50.8709 232.826 46.34 232.826 40.7509C232.826 35.1617 228.295 30.6309 222.706 30.6309C217.117 30.6309 212.586 35.1617 212.586 40.7509C212.586 46.34 217.117 50.8709 222.706 50.8709Z" fill="#F15A24"/>
<path fill-rule="evenodd" clip-rule="evenodd" d="M343.597 114.722C353.227 112.142 358.207 100.682 355.857 89.0718C353.507 77.4718 342.167 70.8518 332.537 73.4318C322.907 76.0118 317.577 87.3418 320.637 98.7418C323.687 110.142 333.967 117.292 343.597 114.712V114.722ZM338.107 117.072C350.797 117.072 361.097 106.782 361.097 94.0818C361.097 81.3818 350.807 71.0918 338.107 71.0918C325.407 71.0918 315.117 81.3818 315.117 94.0818C315.117 106.782 325.407 117.072 338.107 117.072Z" fill="black"/>
<path d="M307.311 72.0117H302.711V116.152H307.311V72.0117Z" fill="black"/>
<path d="M250.307 93.1616C249.797 106.282 260.277 117.072 273.277 117.072C283.827 117.072 293.737 109.482 295.347 100.062V93.6216H270.287V95.4616H287.957C289.007 95.4616 289.837 96.3316 289.797 97.3816C289.447 107.592 286.157 112.752 278.767 114.722C269.137 117.302 258.857 110.152 255.807 98.7516C252.757 87.3516 258.077 76.0216 267.707 73.4416C276.797 71.0016 287.417 76.7616 290.547 87.1916L294.487 85.2016C290.897 76.6416 282.277 70.7116 272.317 71.1216C260.427 71.6016 250.767 81.2816 250.307 93.1716V93.1616Z" fill="black"/>
<path fill-rule="evenodd" clip-rule="evenodd" d="M218.108 96.38H225.928C232.218 96.38 237.878 92.26 237.878 85.12C237.878 77.98 232.898 73.86 226.618 73.86H218.108V96.39V96.38ZM212.588 72.01H227.298C235.298 72.01 243.388 76.96 243.388 85.11C243.388 90.18 238.468 95.56 232.388 97.48C236.658 98.98 238.778 101.75 239.248 103.96C239.278 104.11 239.308 104.25 239.338 104.4C240.348 109.13 241.508 114.55 247.518 115.22V116.14C237.858 116.14 236.948 114.53 234.648 106.71C234.598 106.54 234.548 106.38 234.508 106.22C232.598 99.71 232.218 98.43 226.838 98.21H218.098V116.14H212.578V72L212.588 72.01Z" fill="black"/>
<path d="M203.858 72.0117H199.258V116.152H203.858V72.0117Z" fill="black"/>
<path d="M173.719 102.731C174.129 103.731 175.119 104.431 176.269 104.431C177.419 104.431 178.399 103.731 178.819 102.731L190.979 72.0215H192.819L175.349 116.161H173.509L156.039 72.0215C159.369 72.0215 162.359 74.0515 163.589 77.1515" fill="black"/>
<path d="M105.965 125.892C105.415 127.722 105.295 129.412 105.625 130.972C105.945 132.532 106.635 133.922 107.685 135.162C108.735 136.402 110.035 137.362 111.595 138.042C113.145 138.732 114.845 139.072 116.675 139.072C119.055 139.072 121.315 138.202 123.465 136.462C125.615 134.722 127.445 132.572 128.955 130.012C130.465 127.452 131.535 124.662 132.185 121.642C132.825 118.622 132.805 115.832 132.115 113.272C131.425 110.712 129.985 108.562 127.795 106.822C125.595 105.082 122.395 104.212 118.185 104.212C112.425 104.212 107.455 105.542 103.295 108.192C99.125 110.842 95.745 114.142 93.135 118.072C90.525 122.012 88.745 126.312 87.785 130.972C86.825 135.642 86.635 139.942 87.235 143.872C87.825 147.812 89.205 151.102 91.355 153.752C93.505 156.402 96.415 157.732 100.075 157.732C100.255 157.732 100.575 157.712 101.035 157.662C101.495 157.612 101.975 157.522 102.475 157.392C102.975 157.252 103.415 157.072 103.775 156.842C104.135 156.612 104.325 156.362 104.325 156.092C104.325 155.272 103.845 154.602 102.885 154.102C101.925 153.602 100.805 153.212 99.525 152.932C98.245 152.662 96.965 152.472 95.685 152.382C94.405 152.292 93.485 152.242 92.935 152.242C84.975 152.242 77.925 153.412 71.795 155.742C65.665 158.072 60.425 161.122 56.075 164.872C51.725 168.622 48.275 172.922 45.715 177.772C43.155 182.622 41.455 187.582 40.635 192.662C39.815 197.742 39.855 202.702 40.775 207.552C41.685 212.402 43.425 216.702 45.995 220.452C48.555 224.202 51.965 227.242 56.225 229.582C60.485 231.912 65.575 233.082 71.525 233.082C78.295 233.082 84.015 231.732 88.685 229.032C93.355 226.332 97.055 222.972 99.805 218.942C102.545 214.912 104.335 210.552 105.155 205.832C105.975 201.122 105.955 196.752 105.085 192.722C104.215 188.692 102.495 185.332 99.935 182.632C97.375 179.932 94.075 178.582 90.055 178.582C86.035 178.582 82.525 179.472 79.825 181.262C77.125 183.042 75.085 185.242 73.715 187.852C72.345 190.462 71.585 193.182 71.455 196.022C71.315 198.862 71.705 201.372 72.625 203.572L71.525 204.262C70.245 200.782 69.855 197.402 70.355 194.102C70.855 190.812 72.075 187.852 73.995 185.252C75.915 182.642 78.475 180.542 81.685 178.942C84.885 177.342 88.635 176.542 92.935 176.542C98.515 176.542 102.975 177.982 106.315 180.862C109.655 183.742 111.875 187.312 112.975 191.572C114.075 195.832 114.025 200.472 112.835 205.502C111.645 210.532 109.335 215.182 105.905 219.432C102.475 223.692 97.875 227.252 92.115 230.142C86.355 233.022 79.485 234.462 71.525 234.462C64.475 234.462 58.305 233.272 52.995 230.892C47.685 228.512 43.295 225.352 39.815 221.422C36.335 217.482 33.825 213.032 32.265 208.042C30.705 203.052 30.205 197.932 30.755 192.672C31.305 187.412 32.955 182.292 35.695 177.302C38.445 172.312 42.375 167.852 47.495 163.922C52.615 159.992 58.935 156.832 66.435 154.452C73.935 152.072 82.765 150.882 92.925 150.882C93.745 150.882 94.865 150.932 96.285 151.022C97.705 151.112 99.125 151.342 100.545 151.712C101.965 152.082 103.175 152.632 104.185 153.362C105.195 154.092 105.695 155.052 105.695 156.242C105.695 156.792 105.485 157.252 105.075 157.612C104.665 157.982 104.135 158.272 103.495 158.502C102.855 158.732 102.215 158.892 101.575 158.982C100.935 159.072 100.425 159.122 100.065 159.122C95.6749 159.122 91.855 157.732 88.605 154.932C85.355 152.142 82.925 148.662 81.335 144.502C79.735 140.342 79.095 135.832 79.415 130.982C79.735 126.132 81.285 121.622 84.085 117.462C86.875 113.302 91.035 109.822 96.575 107.032C102.115 104.242 109.315 102.842 118.195 102.842C122.675 102.842 126.385 103.782 129.315 105.652C132.245 107.532 134.415 109.842 135.835 112.582C137.255 115.332 137.895 118.342 137.755 121.642C137.615 124.932 136.725 127.952 135.075 130.702C133.425 133.452 131.045 135.762 127.935 137.632C124.825 139.512 121.025 140.442 116.545 140.442C114.435 140.442 112.545 140.032 110.845 139.202C109.155 138.382 107.735 137.282 106.585 135.912C105.435 134.542 104.665 132.962 104.255 131.172C103.845 129.392 103.955 127.492 104.595 125.472L105.965 125.882V125.892Z" fill="#009245"/>
<path d="M180.222 157.772C176.742 143.152 169.182 135.692 158.852 135.692C141.882 135.692 133.292 154.502 133.292 173.922C133.292 194.472 142.902 215.732 162.222 215.732C171.322 215.732 177.862 211.032 182.262 201.322L184.512 202.142C178.792 216.662 169.182 224.122 156.092 224.122C133.602 224.122 122.352 201.222 122.352 178.322C122.352 155.422 133.802 132.012 157.012 132.012C166.422 132.012 171.832 136.102 175.622 136.102C177.462 136.102 178.482 134.872 178.892 132.012H181.042L182.472 157.362L180.222 157.772Z" fill="#009245"/>
<path d="M184.523 177.912C184.523 150.822 197.303 132.012 217.643 132.012C237.983 132.012 250.663 150.822 250.663 178.012C250.663 205.202 237.883 224.122 217.643 224.122C197.403 224.122 184.523 205.622 184.523 177.912ZM196.373 177.702C196.373 203.362 204.653 220.642 217.633 220.642C230.613 220.642 238.793 203.572 238.793 178.112C238.793 152.652 230.513 135.482 217.423 135.482C204.333 135.482 196.363 152.252 196.363 177.702H196.373Z" fill="#009245"/>
<path d="M258.398 178.062H279.738V188.412H258.398V178.062Z" fill="#009245"/>
<path d="M291.076 208.472C291.076 213.992 292.506 218.792 300.176 220.122V222.372H278.406V220.122C286.076 218.792 287.506 213.992 287.506 208.472V145.912C287.506 140.392 286.076 135.582 278.406 134.262V132.012H295.886L338.826 200.712V145.912C338.826 140.392 337.396 135.582 329.726 134.262V132.012H351.496V134.262C343.826 135.592 342.396 140.392 342.396 145.912V224.122H340.146L291.076 145.512V208.482V208.472Z" fill="#009245"/>
<path d="M437.698 157.772C434.218 143.152 426.658 135.692 416.328 135.692C399.358 135.692 390.768 154.502 390.768 173.922C390.768 194.472 400.378 215.732 419.698 215.732C428.798 215.732 435.338 211.032 439.738 201.322L441.988 202.142C436.268 216.662 426.658 224.122 413.568 224.122C391.078 224.122 379.828 201.222 379.828 178.322C379.828 155.422 391.278 132.012 414.488 132.012C423.898 132.012 429.308 136.102 433.098 136.102C434.938 136.102 435.958 134.872 436.368 132.012H438.518L439.948 157.362L437.698 157.772Z" fill="#009245"/>
<path d="M175.845 323.452H150.085V321.202C155.805 321.202 157.855 317.422 156.015 311.592L152.335 300.042H123.715L120.345 311.292C118.305 318.042 120.345 321.212 126.585 321.212V323.462H107.055V321.212C111.455 321.212 114.825 318.142 116.865 311.292L140.375 233.082H142.625L167.675 312.002C169.925 319.162 171.255 321.202 175.855 321.202V323.452H175.845ZM124.835 296.462H151.215L137.725 253.522L124.845 296.462H124.835Z" fill="#009245"/>
<path d="M193.434 309.552C193.434 315.072 192.824 319.872 200.484 321.202V323.452H175.844V321.202C183.514 319.872 182.894 315.072 182.894 309.552V246.992C182.894 241.472 183.504 236.662 175.844 235.342V233.092H200.484V235.342C192.814 236.672 193.434 241.472 193.434 246.992V309.552Z" fill="#009245"/>
<path d="M265.963 242.162C261.923 244.722 258.483 248.362 255.643 253.072C252.803 257.782 250.223 263.112 247.903 269.062C245.583 275.012 243.383 281.322 241.323 288.002C239.263 294.682 237.023 301.342 234.613 307.972C232.203 314.612 229.493 320.942 226.483 326.982C223.473 333.022 219.863 338.372 215.643 343.042C211.423 347.712 206.463 351.412 200.743 354.162C195.023 356.912 188.253 358.282 180.423 358.282C173.283 358.282 167.153 357.132 162.043 354.852C156.923 352.562 152.793 349.522 149.653 345.722C146.513 341.922 144.273 337.622 142.943 332.822C141.613 328.022 141.183 323.102 141.653 318.072C142.123 313.042 143.413 308.122 145.523 303.312C147.633 298.512 150.513 294.212 154.163 290.412C157.813 286.612 162.223 283.572 167.383 281.282C172.543 278.992 178.393 277.852 184.933 277.852C189.573 277.852 193.403 278.742 196.413 280.532C199.423 282.312 201.593 284.632 202.933 287.462C204.263 290.302 204.803 293.432 204.543 296.862C204.283 300.292 203.193 303.652 201.253 306.952C199.313 310.242 196.563 313.262 192.993 316.012C189.423 318.762 185.013 320.812 179.773 322.192L179.513 320.822C183.643 319.722 187.193 317.942 190.153 315.472C193.123 313.002 195.443 310.212 197.123 307.102C198.803 303.992 199.833 300.812 200.223 297.562C200.613 294.312 200.303 291.312 199.323 288.572C198.333 285.822 196.633 283.582 194.223 281.842C191.813 280.102 188.713 279.232 184.933 279.232C179.513 279.232 174.653 280.352 170.353 282.592C166.053 284.832 162.393 287.762 159.383 291.372C156.373 294.992 153.983 299.132 152.223 303.792C150.463 308.462 149.403 313.222 149.063 318.062C148.723 322.912 149.083 327.672 150.163 332.332C151.233 337.002 153.043 341.142 155.583 344.752C158.123 348.362 161.453 351.292 165.583 353.532C169.713 355.772 174.653 356.892 180.423 356.892C186.963 356.892 192.573 355.542 197.263 352.842C201.953 350.142 206.033 346.482 209.523 341.862C213.003 337.242 216.013 331.932 218.553 325.942C221.093 319.952 223.493 313.682 225.773 307.142C228.053 300.602 230.373 293.962 232.743 287.242C235.103 280.512 237.793 274.182 240.803 268.232C243.813 262.282 247.323 256.912 251.313 252.102C255.313 247.302 260.103 243.522 265.703 240.782L265.963 242.152V242.162ZM222.993 284.162C217.913 283.152 213.963 281.072 211.123 277.912C208.283 274.752 206.563 271.092 205.963 266.932C205.363 262.772 205.923 258.382 207.643 253.752C209.363 249.132 212.223 244.902 216.223 241.052C220.223 237.212 225.383 234.032 231.703 231.512C238.023 228.992 245.523 227.742 254.213 227.742C262.903 227.742 270.943 229.462 277.303 232.892C283.663 236.322 288.373 240.622 291.433 245.792C294.483 250.962 295.733 256.562 295.173 262.602C294.613 268.642 291.963 274.252 287.243 279.412C282.513 284.582 275.523 288.882 266.273 292.312C257.023 295.742 245.223 297.462 230.863 297.462V296.092C239.723 296.092 247.443 295.132 254.023 293.212C260.603 291.292 266.173 288.752 270.733 285.592C275.293 282.432 278.843 278.842 281.373 274.822C283.913 270.792 285.543 266.682 286.273 262.472C287.003 258.262 286.853 254.142 285.823 250.122C284.793 246.092 282.943 242.502 280.273 239.352C277.603 236.192 274.183 233.652 270.013 231.732C265.843 229.812 259.813 228.542 254.233 228.952C249.513 229.302 249.363 230.062 243.683 232.492C238.003 234.922 233.213 237.982 229.293 241.692C225.373 245.402 222.413 249.442 220.393 253.842C218.373 258.232 217.363 262.422 217.363 266.402C217.363 270.382 218.463 273.882 220.653 276.902C222.843 279.922 223.393 279.142 223.113 282.802L222.983 284.172L222.993 284.162ZM239.903 296.782C240.673 296.512 241.493 296.232 242.353 295.962C243.213 295.692 244.073 295.552 244.933 295.552C248.893 295.552 252.563 296.672 255.963 298.912C259.363 301.152 262.563 304.132 265.573 307.832C268.583 311.542 271.443 315.722 274.153 320.392C276.863 325.062 279.523 329.862 282.153 334.802C284.773 339.742 287.403 344.552 290.023 349.212C292.643 353.882 295.373 358.062 298.213 361.772C301.053 365.482 304.043 368.452 307.183 370.692C310.323 372.932 313.703 374.052 317.313 374.052C318.773 374.052 320.303 373.842 321.893 373.432C323.483 373.022 324.923 372.382 326.213 371.512C327.503 370.642 328.553 369.522 329.373 368.152C330.193 366.782 330.603 365.182 330.603 363.352C330.603 362.162 330.363 360.922 329.893 359.642C329.423 358.362 328.453 357.722 326.993 357.722L327.123 356.352C328.933 356.532 330.173 357.332 330.863 358.752C331.553 360.172 331.893 361.752 331.893 363.492C331.893 365.502 331.443 367.242 330.543 368.712C329.643 370.172 328.483 371.412 327.063 372.422C325.643 373.432 324.073 374.182 322.353 374.682C320.633 375.182 318.953 375.432 317.323 375.432C311.903 375.432 307.003 374.312 302.613 372.072C298.223 369.832 294.203 366.852 290.553 363.152C286.893 359.442 283.583 355.262 280.623 350.592C277.653 345.922 274.863 341.122 272.233 336.182C269.613 331.242 267.153 326.432 264.883 321.772C262.603 317.102 260.343 312.922 258.113 309.212C255.873 305.502 253.613 302.532 251.343 300.292C249.063 298.052 246.633 296.932 244.053 296.932L239.923 296.792L239.903 296.782Z" fill="#009245"/>
<path d="M68.9163 323.452V321.202C76.5863 319.872 75.9663 315.072 75.9663 309.552V246.992C75.9663 241.472 76.5763 235.722 68.9163 234.392V233.092H124.016L124.836 251.082H122.586C121.256 240.552 117.376 236.462 108.786 236.462H86.4963V276.532H99.5863C106.126 276.532 109.906 276.122 111.236 268.452H113.486V288.182H111.236C109.906 280.512 106.126 280.102 99.5863 280.102H86.4963V309.542C86.4963 315.062 85.8863 319.862 93.5463 321.192V323.442H68.9062L68.9163 323.452Z" fill="#009245"/>
<path d="M373.442 208.472C373.442 213.992 372.832 218.792 380.492 220.122V222.372H355.852V220.122C363.522 218.792 362.902 213.992 362.902 208.472V145.912C362.902 140.392 363.512 135.582 355.852 134.262V132.012H380.492V134.262C372.822 135.592 373.442 140.392 373.442 145.912V208.472Z" fill="#009245"/>
<path d="M426.912 391.823C425.492 393.893 425.412 396.653 426.732 398.803C428.012 400.883 430.242 401.913 432.872 401.343L432.852 410.343C431.302 410.003 429.852 410.283 428.702 410.983H59.8922C59.0822 410.673 58.1822 410.553 57.2422 410.653L57.3022 401.873C60.8122 402.293 63.5722 399.543 63.6422 395.993C63.7022 392.403 60.9522 389.503 57.2722 389.813V381.143C60.8422 381.423 63.5222 378.713 63.6222 375.303C63.7322 371.573 60.9322 368.693 57.2622 369.023V360.303C60.8122 360.613 63.5322 357.913 63.6122 354.333C63.6822 350.783 60.9422 347.883 57.2622 348.173V339.893H432.792L432.882 347.843C430.362 347.463 428.162 348.283 426.802 350.333C425.502 352.293 425.422 354.973 426.612 357.013C427.912 359.243 430.212 360.293 432.832 359.723L432.912 368.643C430.462 368.343 428.162 369.053 426.862 371.083C425.482 373.233 425.462 375.953 426.802 378.113C428.082 380.163 430.352 381.043 432.912 380.623L432.872 389.483C430.432 389.093 428.242 389.923 426.942 391.833L426.912 391.823Z" fill="#F18C22"/>
<mask id="mask0_3163_18387" style="mask-type:luminance" maskUnits="userSpaceOnUse" x="28" y="100" width="416" height="278">
<path d="M28.5312 100.832V377.432H443.981V100.832H28.5312ZM219.331 340.202C218.361 341.432 217.371 342.612 216.381 343.712C212.101 348.452 206.981 352.272 201.171 355.062C195.341 357.862 188.361 359.282 180.421 359.282C173.171 359.282 166.851 358.102 161.631 355.762C156.401 353.422 152.111 350.262 148.881 346.362C147.241 344.372 145.811 342.212 144.641 339.922V339.892H153.881C154.621 341.402 155.471 342.852 156.411 344.192C158.841 347.662 162.091 350.512 166.071 352.672C170.031 354.822 174.861 355.912 180.431 355.912C186.751 355.912 192.251 354.592 196.771 351.992C201.321 349.372 205.341 345.762 208.731 341.272C209.051 340.842 209.391 340.372 209.741 339.882H219.381L219.341 340.202H219.331Z" fill="white"/>
</mask>
<g mask="url(#mask0_3163_18387)">
<path d="M105.965 125.892C105.415 127.722 105.295 129.412 105.625 130.972C105.945 132.532 106.635 133.922 107.685 135.162C108.735 136.402 110.035 137.362 111.595 138.042C113.145 138.732 114.845 139.072 116.675 139.072C119.055 139.072 121.315 138.202 123.465 136.462C125.615 134.722 127.445 132.572 128.955 130.012C130.465 127.452 131.535 124.662 132.185 121.642C132.825 118.622 132.805 115.832 132.115 113.272C131.425 110.712 129.985 108.562 127.795 106.822C125.595 105.082 122.395 104.212 118.185 104.212C112.425 104.212 107.455 105.542 103.295 108.192C99.125 110.842 95.745 114.142 93.135 118.072C90.525 122.012 88.745 126.312 87.785 130.972C86.825 135.642 86.635 139.942 87.235 143.872C87.825 147.812 89.205 151.102 91.355 153.752C93.505 156.402 96.415 157.732 100.075 157.732C100.255 157.732 100.575 157.712 101.035 157.662C101.495 157.612 101.975 157.522 102.475 157.392C102.975 157.252 103.415 157.072 103.775 156.842C104.135 156.612 104.325 156.362 104.325 156.092C104.325 155.272 103.845 154.602 102.885 154.102C101.925 153.602 100.805 153.212 99.525 152.932C98.245 152.662 96.965 152.472 95.685 152.382C94.405 152.292 93.485 152.242 92.935 152.242C84.975 152.242 77.925 153.412 71.795 155.742C65.665 158.072 60.425 161.122 56.075 164.872C51.725 168.622 48.275 172.922 45.715 177.772C43.155 182.622 41.455 187.582 40.635 192.662C39.815 197.742 39.855 202.702 40.775 207.552C41.685 212.402 43.425 216.702 45.995 220.452C48.555 224.202 51.965 227.242 56.225 229.582C60.485 231.912 65.575 233.082 71.525 233.082C78.295 233.082 84.015 231.732 88.685 229.032C93.355 226.332 97.055 222.972 99.805 218.942C102.545 214.912 104.335 210.552 105.155 205.832C105.975 201.122 105.955 196.752 105.085 192.722C104.215 188.692 102.495 185.332 99.935 182.632C97.375 179.932 94.075 178.582 90.055 178.582C86.035 178.582 82.525 179.472 79.825 181.262C77.125 183.042 75.085 185.242 73.715 187.852C72.345 190.462 71.585 193.182 71.455 196.022C71.315 198.862 71.705 201.372 72.625 203.572L71.525 204.262C70.245 200.782 69.855 197.402 70.355 194.102C70.855 190.812 72.075 187.852 73.995 185.252C75.915 182.642 78.475 180.542 81.685 178.942C84.885 177.342 88.635 176.542 92.935 176.542C98.515 176.542 102.975 177.982 106.315 180.862C109.655 183.742 111.875 187.312 112.975 191.572C114.075 195.832 114.025 200.472 112.835 205.502C111.645 210.532 109.335 215.182 105.905 219.432C102.475 223.692 97.875 227.252 92.115 230.142C86.355 233.022 79.485 234.462 71.525 234.462C64.475 234.462 58.305 233.272 52.995 230.892C47.685 228.512 43.295 225.352 39.815 221.422C36.335 217.482 33.825 213.032 32.265 208.042C30.705 203.052 30.205 197.932 30.755 192.672C31.305 187.412 32.955 182.292 35.695 177.302C38.445 172.312 42.375 167.852 47.495 163.922C52.615 159.992 58.935 156.832 66.435 154.452C73.935 152.072 82.765 150.882 92.925 150.882C93.745 150.882 94.865 150.932 96.285 151.022C97.705 151.112 99.125 151.342 100.545 151.712C101.965 152.082 103.175 152.632 104.185 153.362C105.195 154.092 105.695 155.052 105.695 156.242C105.695 156.792 105.485 157.252 105.075 157.612C104.665 157.982 104.135 158.272 103.495 158.502C102.855 158.732 102.215 158.892 101.575 158.982C100.935 159.072 100.425 159.122 100.065 159.122C95.6749 159.122 91.855 157.732 88.605 154.932C85.355 152.142 82.925 148.662 81.335 144.502C79.735 140.342 79.095 135.832 79.415 130.982C79.735 126.132 81.285 121.622 84.085 117.462C86.875 113.302 91.035 109.822 96.575 107.032C102.115 104.242 109.315 102.842 118.195 102.842C122.675 102.842 126.385 103.782 129.315 105.652C132.245 107.532 134.415 109.842 135.835 112.582C137.255 115.332 137.895 118.342 137.755 121.642C137.615 124.932 136.725 127.952 135.075 130.702C133.425 133.452 131.045 135.762 127.935 137.632C124.825 139.512 121.025 140.442 116.545 140.442C114.435 140.442 112.545 140.032 110.845 139.202C109.155 138.382 107.735 137.282 106.585 135.912C105.435 134.542 104.665 132.962 104.255 131.172C103.845 129.392 103.955 127.492 104.595 125.472L105.965 125.882V125.892Z" fill="#009245"/>
<path d="M180.222 157.772C176.742 143.152 169.182 135.692 158.852 135.692C141.882 135.692 133.292 154.502 133.292 173.922C133.292 194.472 142.902 215.732 162.222 215.732C171.322 215.732 177.862 211.032 182.262 201.322L184.512 202.142C178.792 216.662 169.182 224.122 156.092 224.122C133.602 224.122 122.352 201.222 122.352 178.322C122.352 155.422 133.802 132.012 157.012 132.012C166.422 132.012 171.832 136.102 175.622 136.102C177.462 136.102 178.482 134.872 178.892 132.012H181.042L182.472 157.362L180.222 157.772Z" fill="#009245"/>
<path d="M184.523 177.912C184.523 150.822 197.303 132.012 217.643 132.012C237.983 132.012 250.663 150.822 250.663 178.012C250.663 205.202 237.883 224.122 217.643 224.122C197.403 224.122 184.523 205.622 184.523 177.912ZM196.373 177.702C196.373 203.362 204.653 220.642 217.633 220.642C230.613 220.642 238.793 203.572 238.793 178.112C238.793 152.652 230.513 135.482 217.423 135.482C204.333 135.482 196.363 152.252 196.363 177.702H196.373Z" fill="#009245"/>
<path d="M258.398 178.062H279.738V188.412H258.398V178.062Z" fill="#009245"/>
<path d="M291.076 208.472C291.076 213.992 292.506 218.792 300.176 220.122V222.372H278.406V220.122C286.076 218.792 287.506 213.992 287.506 208.472V145.912C287.506 140.392 286.076 135.582 278.406 134.262V132.012H295.886L338.826 200.712V145.912C338.826 140.392 337.396 135.582 329.726 134.262V132.012H351.496V134.262C343.826 135.592 342.396 140.392 342.396 145.912V224.122H340.146L291.076 145.512V208.482V208.472Z" fill="#009245"/>
<path d="M437.698 157.772C434.218 143.152 426.658 135.692 416.328 135.692C399.358 135.692 390.768 154.502 390.768 173.922C390.768 194.472 400.378 215.732 419.698 215.732C428.798 215.732 435.338 211.032 439.738 201.322L441.988 202.142C436.268 216.662 426.658 224.122 413.568 224.122C391.078 224.122 379.828 201.222 379.828 178.322C379.828 155.422 391.278 132.012 414.488 132.012C423.898 132.012 429.308 136.102 433.098 136.102C434.938 136.102 435.958 134.872 436.368 132.012H438.518L439.948 157.362L437.698 157.772Z" fill="#009245"/>
<path d="M175.845 323.452H150.085V321.202C155.805 321.202 157.855 317.422 156.015 311.592L152.335 300.042H123.715L120.345 311.292C118.305 318.042 120.345 321.212 126.585 321.212V323.462H107.055V321.212C111.455 321.212 114.825 318.142 116.865 311.292L140.375 233.082H142.625L167.675 312.002C169.925 319.162 171.255 321.202 175.855 321.202V323.452H175.845ZM124.835 296.462H151.215L137.725 253.522L124.845 296.462H124.835Z" fill="#009245"/>
<path d="M193.434 309.552C193.434 315.072 192.824 319.872 200.484 321.202V323.452H175.844V321.202C183.514 319.872 182.894 315.072 182.894 309.552V246.992C182.894 241.472 183.504 236.662 175.844 235.342V233.092H200.484V235.342C192.814 236.672 193.434 241.472 193.434 246.992V309.552Z" fill="#009245"/>
<path d="M265.963 242.162C261.923 244.722 258.483 248.362 255.643 253.072C252.803 257.782 250.223 263.112 247.903 269.062C245.583 275.012 243.383 281.322 241.323 288.002C239.263 294.682 237.023 301.342 234.613 307.972C232.203 314.612 229.493 320.942 226.483 326.982C223.473 333.022 219.863 338.372 215.643 343.042C211.423 347.712 206.463 351.412 200.743 354.162C195.023 356.912 188.253 358.282 180.423 358.282C173.283 358.282 167.153 357.132 162.043 354.852C156.923 352.562 152.793 349.522 149.653 345.722C146.513 341.922 144.273 337.622 142.943 332.822C141.613 328.022 141.183 323.102 141.653 318.072C142.123 313.042 143.413 308.122 145.523 303.312C147.633 298.512 150.513 294.212 154.163 290.412C157.813 286.612 162.223 283.572 167.383 281.282C172.543 278.992 178.393 277.852 184.933 277.852C189.573 277.852 193.403 278.742 196.413 280.532C199.423 282.312 201.593 284.632 202.933 287.462C204.263 290.302 204.803 293.432 204.543 296.862C204.283 300.292 203.193 303.652 201.253 306.952C199.313 310.242 196.563 313.262 192.993 316.012C189.423 318.762 185.013 320.812 179.773 322.192L179.513 320.822C183.643 319.722 187.193 317.942 190.153 315.472C193.123 313.002 195.443 310.212 197.123 307.102C198.803 303.992 199.833 300.812 200.223 297.562C200.613 294.312 200.303 291.312 199.323 288.572C198.333 285.822 196.633 283.582 194.223 281.842C191.813 280.102 188.713 279.232 184.933 279.232C179.513 279.232 174.653 280.352 170.353 282.592C166.053 284.832 162.393 287.762 159.383 291.372C156.373 294.992 153.983 299.132 152.223 303.792C150.463 308.462 149.403 313.222 149.063 318.062C148.723 322.912 149.083 327.672 150.163 332.332C151.233 337.002 153.043 341.142 155.583 344.752C158.123 348.362 161.453 351.292 165.583 353.532C169.713 355.772 174.653 356.892 180.423 356.892C186.963 356.892 192.573 355.542 197.263 352.842C201.953 350.142 206.033 346.482 209.523 341.862C213.003 337.242 216.013 331.932 218.553 325.942C221.093 319.952 223.493 313.682 225.773 307.142C228.053 300.602 230.373 293.962 232.743 287.242C235.103 280.512 237.793 274.182 240.803 268.232C243.813 262.282 247.323 256.912 251.313 252.102C255.313 247.302 260.103 243.522 265.703 240.782L265.963 242.152V242.162ZM222.993 284.162C217.913 283.152 213.963 281.072 211.123 277.912C208.283 274.752 206.563 271.092 205.963 266.932C205.363 262.772 205.923 258.382 207.643 253.752C209.363 249.132 212.223 244.902 216.223 241.052C220.223 237.212 225.383 234.032 231.703 231.512C238.023 228.992 245.523 227.742 254.213 227.742C262.903 227.742 270.943 229.462 277.303 232.892C283.663 236.322 288.373 240.622 291.433 245.792C294.483 250.962 295.733 256.562 295.173 262.602C294.613 268.642 291.963 274.252 287.243 279.412C282.513 284.582 275.523 288.882 266.273 292.312C257.023 295.742 245.223 297.462 230.863 297.462V296.092C239.723 296.092 247.443 295.132 254.023 293.212C260.603 291.292 266.173 288.752 270.733 285.592C275.293 282.432 278.843 278.842 281.373 274.822C283.913 270.792 285.543 266.682 286.273 262.472C287.003 258.262 286.853 254.142 285.823 250.122C284.793 246.092 282.943 242.502 280.273 239.352C277.603 236.192 274.183 233.652 270.013 231.732C265.843 229.812 259.813 228.542 254.233 228.952C249.513 229.302 249.363 230.062 243.683 232.492C238.003 234.922 233.213 237.982 229.293 241.692C225.373 245.402 222.413 249.442 220.393 253.842C218.373 258.232 217.363 262.422 217.363 266.402C217.363 270.382 218.463 273.882 220.653 276.902C222.843 279.922 223.393 279.142 223.113 282.802L222.983 284.172L222.993 284.162ZM239.903 296.782C240.673 296.512 241.493 296.232 242.353 295.962C243.213 295.692 244.073 295.552 244.933 295.552C248.893 295.552 252.563 296.672 255.963 298.912C259.363 301.152 262.563 304.132 265.573 307.832C268.583 311.542 271.443 315.722 274.153 320.392C276.863 325.062 279.523 329.862 282.153 334.802C284.773 339.742 287.403 344.552 290.023 349.212C292.643 353.882 295.373 358.062 298.213 361.772C301.053 365.482 304.043 368.452 307.183 370.692C310.323 372.932 313.703 374.052 317.313 374.052C318.773 374.052 320.303 373.842 321.893 373.432C323.483 373.022 324.923 372.382 326.213 371.512C327.503 370.642 328.553 369.522 329.373 368.152C330.193 366.782 330.603 365.182 330.603 363.352C330.603 362.162 330.363 360.922 329.893 359.642C329.423 358.362 328.453 357.722 326.993 357.722L327.123 356.352C328.933 356.532 330.173 357.332 330.863 358.752C331.553 360.172 331.893 361.752 331.893 363.492C331.893 365.502 331.443 367.242 330.543 368.712C329.643 370.172 328.483 371.412 327.063 372.422C325.643 373.432 324.073 374.182 322.353 374.682C320.633 375.182 318.953 375.432 317.323 375.432C311.903 375.432 307.003 374.312 302.613 372.072C298.223 369.832 294.203 366.852 290.553 363.152C286.893 359.442 283.583 355.262 280.623 350.592C277.653 345.922 274.863 341.122 272.233 336.182C269.613 331.242 267.153 326.432 264.883 321.772C262.603 317.102 260.343 312.922 258.113 309.212C255.873 305.502 253.613 302.532 251.343 300.292C249.063 298.052 246.633 296.932 244.053 296.932L239.923 296.792L239.903 296.782Z" fill="#009245"/>
<path d="M68.9163 323.452V321.202C76.5863 319.872 75.9663 315.072 75.9663 309.552V246.992C75.9663 241.472 76.5763 235.722 68.9163 234.392V233.092H124.016L124.836 251.082H122.586C121.256 240.552 117.376 236.462 108.786 236.462H86.4963V276.532H99.5863C106.126 276.532 109.906 276.122 111.236 268.452H113.486V288.182H111.236C109.906 280.512 106.126 280.102 99.5863 280.102H86.4963V309.542C86.4963 315.062 85.8863 319.862 93.5463 321.192V323.442H68.9062L68.9163 323.452Z" fill="#009245"/>
<path d="M373.442 208.472C373.442 213.992 372.832 218.792 380.492 220.122V222.372H355.852V220.122C363.522 218.792 362.902 213.992 362.902 208.472V145.912C362.902 140.392 363.512 135.582 355.852 134.262V132.012H380.492V134.262C372.822 135.592 373.442 140.392 373.442 145.912V208.472Z" fill="#009245"/>
</g>
<path d="M111.727 391.592C117.427 386.452 126.607 377.623 126.607 369.203C126.607 364.493 123.757 362.203 120.597 362.203C117.707 362.203 114.587 364.062 113.197 367.622L112.287 367.383C113.557 361.523 116.997 358.562 121.747 358.562C126.887 358.562 130.527 362.083 130.527 367.233C130.527 372.973 126.057 379.852 116.637 388.562H124.587C128.307 388.562 128.667 388.323 130.407 384.883L131.197 385.203L129.457 392.483H111.727V391.613V391.592Z" fill="white"/>
<path d="M135.589 393.133C135.589 382.683 139.859 372.993 147.539 362.473H138.399C134.679 362.473 134.319 362.713 132.579 366.153L131.789 365.833L133.529 358.553H151.649V359.423C145.949 364.563 137.289 379.013 141.399 392.973L135.579 393.133H135.589Z" fill="white"/>
<path d="M159.327 369.912H164.347V371.022H159.327V386.612C159.327 389.142 160.117 390.332 161.897 390.332C163.127 390.332 163.997 389.742 164.507 388.512L165.337 388.752C164.747 391.402 162.687 393.142 160.157 393.142C157.227 393.142 155.407 390.852 155.407 387.092V371.032H152.047V369.962C155.177 369.722 157.147 367.552 158.257 363.672H159.327V369.922V369.912Z" fill="white"/>
<path d="M185.399 387.082C185.399 389.222 185.159 391.082 188.129 391.592V392.462H178.749V391.592C181.719 391.082 181.479 389.222 181.479 387.082V377.152C181.479 374.462 180.969 372.052 177.839 372.052C175.659 372.052 173.839 373.242 172.459 374.862V387.092C172.459 389.232 172.219 391.092 175.189 391.602V392.472H165.809V391.602C168.779 391.092 168.539 389.232 168.539 387.092V364.222C168.539 361.532 167.789 360.342 165.609 361.052L165.289 360.142L172.449 357.492V373.512C174.739 370.782 177.399 369.392 180.129 369.392C184.639 369.392 185.389 373.582 185.389 377.302V387.072L185.399 387.082Z" fill="white"/>
<path d="M189.516 376.832H200.556V378.412H189.516V376.832Z" fill="white"/>
<path d="M221.244 381.933C221.244 387.313 217.134 393.133 210.124 393.133C206.124 393.133 202.844 391.233 202.404 388.543C202.204 387.273 202.684 386.293 203.674 385.853C204.584 385.453 205.574 385.733 206.284 386.523C207.984 388.423 206.564 391.783 210.714 391.783C215.184 391.783 217.634 387.863 217.634 383.793C217.634 379.283 214.664 374.573 208.294 374.573V373.703C212.884 373.463 215.854 371.173 215.854 367.413C215.854 364.163 213.634 361.993 210.314 361.993C207.384 361.993 205.564 363.653 204.374 366.033L203.624 365.673C205.324 360.923 208.214 358.553 212.294 358.553C216.374 358.553 219.454 361.403 219.454 365.363C219.454 368.883 217.124 372.053 214.464 373.353C219.134 374.423 221.234 378.063 221.234 381.943L221.244 381.933Z" fill="white"/>
<path d="M221.315 362.193L227.885 358.553H228.755V387.083C228.755 389.223 228.515 391.083 231.485 391.593V392.463H222.105V391.593C225.075 391.083 224.835 389.223 224.835 387.083L224.875 365.993C224.875 362.553 224.125 361.843 221.705 362.983L221.305 362.193H221.315Z" fill="white"/>
<path d="M247.317 377.153H246.247C245.617 373.043 243.597 370.583 240.347 370.583C237.897 370.583 236.197 371.963 236.197 373.943C236.197 379.323 248.657 378.693 248.657 386.363C248.657 390.403 245.257 393.133 240.347 393.133C236.827 393.133 233.027 391.713 233.027 390.203V384.623H234.097C234.807 389.333 238.607 391.903 241.497 391.903C243.597 391.903 245.097 390.523 245.097 388.423C245.097 382.493 232.867 383.003 232.867 375.523C232.867 371.723 236.037 369.393 241.217 369.393C244.657 369.393 247.117 370.423 247.307 371.923V377.143L247.317 377.153Z" fill="white"/>
<path d="M256.139 369.912H261.159V371.022H256.139V386.612C256.139 389.142 256.929 390.332 258.709 390.332C259.939 390.332 260.809 389.742 261.319 388.512L262.149 388.752C261.559 391.402 259.499 393.142 256.969 393.142C254.039 393.142 252.219 390.852 252.219 387.092V371.032H248.859V369.962C251.989 369.722 253.959 367.552 255.069 363.672H256.139V369.922V369.912Z" fill="white"/>
<path d="M295.104 362.472L285.724 392.462H284.854L274.644 362.902V387.072C274.644 389.212 275.194 391.072 278.164 391.582V392.452H269.734V391.582C272.704 391.072 273.254 389.212 273.254 387.072V362.862C273.254 360.722 272.704 358.862 269.734 358.352V357.482H276.894L286.784 385.182L295.094 357.482H301.894V358.352C298.924 358.862 299.164 360.722 299.164 362.862V387.072C299.164 389.212 298.924 391.072 301.894 391.582V392.452H292.354V391.582C295.324 391.072 295.084 389.212 295.084 387.072V362.462L295.104 362.472Z" fill="white"/>
<path d="M318.885 377.823V386.133C318.885 388.503 319.325 389.493 320.465 389.493C320.745 389.493 321.135 389.413 321.535 389.293L321.855 390.203L316.115 392.453H314.965V389.323C312.315 391.933 310.095 393.123 307.685 393.123C304.445 393.123 302.305 391.023 302.305 388.023C302.305 383.833 306.425 381.063 314.965 380.823V376.863C314.965 372.513 313.625 370.573 310.885 370.573C307.045 370.573 308.275 374.373 306.845 375.953C306.445 376.393 305.815 376.623 305.185 376.623C304.035 376.623 302.855 375.793 303.245 373.773C303.725 371.283 306.685 369.383 311.475 369.383C316.265 369.383 318.875 371.283 318.875 377.813L318.885 377.823ZM314.965 382.013C311.405 382.173 306.415 383.083 306.415 386.963C306.415 389.063 307.795 390.363 309.815 390.363C311.435 390.363 313.255 389.493 314.955 387.953V382.023L314.965 382.013Z" fill="white"/>
<path d="M336.487 374.613C334.157 374.613 334.747 372.083 332.727 372.083C331.457 372.083 329.877 373.073 328.537 374.733V387.073C328.537 389.213 328.297 391.073 331.267 391.583V392.453H321.887V391.583C324.857 391.073 324.617 389.213 324.617 387.073V376.113C324.617 373.423 323.867 372.233 321.687 372.943L321.367 372.033L328.527 369.383V373.343C330.627 370.893 333.037 369.383 335.097 369.383C337.037 369.383 338.857 370.693 338.857 372.353C338.857 373.663 337.867 374.603 336.487 374.603V374.613Z" fill="white"/>
<path d="M341.516 378.972C341.516 384.002 344.206 389.462 349.346 389.462C352.236 389.462 354.566 387.762 355.716 384.752L356.546 384.912C355.556 389.972 352.156 393.142 347.606 393.142C341.436 393.142 338.266 387.282 338.266 381.352C338.266 375.422 341.506 369.402 348.076 369.402C351.796 369.402 354.956 371.302 355.436 373.792C355.836 375.812 354.646 376.642 353.496 376.642C352.866 376.642 352.226 376.402 351.836 375.972C350.416 374.392 351.676 370.552 347.686 370.552C343.696 370.552 341.516 374.632 341.516 378.982V378.972Z" fill="white"/>
<path d="M376.047 387.082C376.047 389.222 375.807 391.082 378.777 391.592V392.462H369.397V391.592C372.367 391.082 372.128 389.222 372.128 387.082V377.152C372.128 374.462 371.617 372.052 368.487 372.052C366.307 372.052 364.488 373.242 363.108 374.862V387.092C363.108 389.232 362.867 391.092 365.837 391.602V392.472H356.457V391.602C359.427 391.092 359.188 389.232 359.188 387.092V364.222C359.188 361.532 358.438 360.342 356.258 361.052L355.938 360.142L363.098 357.492V373.512C365.388 370.782 368.047 369.392 370.777 369.392C375.287 369.392 376.038 373.582 376.038 377.302V387.072L376.047 387.082Z" fill="white"/>
</svg>
